Tooth.Fairy.2010.1080p.BluRay.DTS.mkv
*************************************

TiTLE......  Tooth Fairy
YEAR.......  2010
GENRE......  Comedy | Family | Fantasy 
iMDB RATE..  User Rating: 4.6/10 (3,719 votes)
iMDB URL...  http://www.imdb.com/title/tt0808510/
*************************************************

Video
Duration                         : 1h 41mn
Overall bit rate                 : 7 715 Kbps
Width                            : 1 920 pixels
Height                           : 1 032 pixels
Display aspect ratio             : 1.860
Frame rate                       : 23.976 fps
Stream size                      : 4.29 GiB (78%)

Audio
Format                           : DTS
Format/Info                      : Digital Theater Systems
Bit rate                         : 1 510 Kbps
Channel(s)                       : 6 channels
Channel positions                : Front: L C R, Surround: L R, LFE
Sampling rate                    : 48.0 KHz
Resolution                       : 24 bits
Stream size                      : 1.07 GiB (20%)
Language                         : English

Subtitles: English, Brazilian
*****************************

